<?xml version="1.0" encoding="UTF-8" standalone="no"?>
<svg
   xmlns:dc="http://purl.org/dc/elements/1.1/"
   xmlns:cc="http://creativecommons.org/ns#"
   xmlns:rdf="http://www.w3.org/1999/02/22-rdf-syntax-ns#"
   xmlns:svg="http://www.w3.org/2000/svg"
   xmlns="http://www.w3.org/2000/svg"
   xmlns:xlink="http://www.w3.org/1999/xlink"
   xmlns:sodipodi="http://sodipodi.sourceforge.net/DTD/sodipodi-0.dtd"
   xmlns:inkscape="http://www.inkscape.org/namespaces/inkscape"
   enable-background="new"
   height="102.4"
   width="102.4"
   version="1.1"
   id="svg5208"
   sodipodi:docname="albert.svg"
   inkscape:version="0.92.2 5c3e80d, 2017-08-06">
  <metadata
     id="metadata5214">
    <rdf:RDF>
      <cc:Work
         rdf:about="">
        <dc:format>image/svg+xml</dc:format>
        <dc:type
           rdf:resource="http://purl.org/dc/dcmitype/StillImage" />
        <dc:title></dc:title>
      </cc:Work>
    </rdf:RDF>
  </metadata>
  <defs
     id="defs5212" />
  <sodipodi:namedview
     pagecolor="#000000"
     bordercolor="#666666"
     borderopacity="1"
     objecttolerance="10"
     gridtolerance="10"
     guidetolerance="10"
     inkscape:pageopacity="1"
     inkscape:pageshadow="2"
     inkscape:window-width="1920"
     inkscape:window-height="1034"
     id="namedview5210"
     showgrid="false"
     showborder="false"
     inkscape:zoom="13.037281"
     inkscape:cx="38.559295"
     inkscape:cy="37.072253"
     inkscape:window-x="0"
     inkscape:window-y="46"
     inkscape:window-maximized="0"
     inkscape:current-layer="svg5208" />
  <linearGradient
     id="a"
     gradientUnits="userSpaceOnUse"
     x1="51.2000016"
     x2="51.2000016"
     y1="96.000003"
     y2="6.38689855">
    <stop
       offset="0"
       stop-color="#404040"
       id="stop5157" />
    <stop
       offset="1"
       stop-color="#808080"
       id="stop5159" />
  </linearGradient>
  <radialGradient
     id="b"
     cx="48"
     cy="-14.78724"
     gradientTransform="matrix(0 1.0591161 -1.0684903 0 35.399977 -44.324099)"
     gradientUnits="userSpaceOnUse"
     r="42">
    <stop
       offset="0"
       stop-color="#a0a0a0"
       id="stop5162" />
    <stop
       offset="1"
       stop-color="#a0a0a0"
       stop-opacity="0"
       id="stop5164" />
  </radialGradient>
  <linearGradient
     id="c"
     gradientUnits="userSpaceOnUse"
     x1="38.78095375"
     x2="38.78095375"
     y1="6.4000002"
     y2="68.152688">
    <stop
       offset="0"
       stop-color="#fff"
       id="stop5167" />
    <stop
       offset="1"
       stop-color="#fff"
       stop-opacity="0"
       id="stop5169" />
  </linearGradient>
  <linearGradient
     id="d"
     gradientTransform="matrix(1.0058652 0 0 .994169 100 0)"
     gradientUnits="userSpaceOnUse"
     x1="45.447727"
     x2="45.447727"
     y1="92.539597"
     y2="7.0165396">
    <stop
       offset="0"
       id="stop5172" />
    <stop
       offset="1"
       stop-opacity=".58823532"
       id="stop5174" />
  </linearGradient>
  <linearGradient
     id="e"
     gradientTransform="matrix(1.0920635 0 0 -1.0793651 -1.2190476 104.60952)"
     gradientUnits="userSpaceOnUse"
     x1="32.251034"
     x2="32.251034"
     xlink:href="#d"
     y1="6.1317081"
     y2="90.238609" />
  <linearGradient
     id="f"
     gradientTransform="matrix(1.0920635 0 0 1.0793651 -1.2190476 -104.60952)"
     gradientUnits="userSpaceOnUse"
     x1="32.251034"
     x2="32.251034"
     xlink:href="#d"
     y1="6.1317081"
     y2="90.238609" />
  <linearGradient
     id="g"
     gradientTransform="matrix(1.0666667 0 0 1.0666667 0 -103.46667)"
     gradientUnits="userSpaceOnUse"
     x1="32.251034"
     x2="32.251034"
     xlink:href="#d"
     y1="6.1317081"
     y2="90.238609" />
  <g
     stroke="#0cc"
     stroke-opacity=".15686275"
     id="g5206">
    <path
       d="m90.120937 55.223446c-10.769328 13.49115-.336437.589537-10.6294 13.560686-3.583113 2.143898-10.152704 3.763432-13.122829 3.146862-4.163503-.627999-8.726025-5.29165-12.072369-9.909655-4.233369-5.844005-7.334608-14.008012-11.625012-19.024014-3.980994-4.654004-9.64022-7.516009-15.017127-3.738004-2.657798 1.87-5.252858 5.234005-7.264742 8.834006-3.213882 5.746006-1.35537 13.216378 7.060039 14.846379 6.62253.570456 9.975141-.319535 18.760046-4.235284 11.324843-5.30799 19.394028-12.24775 40.954815-28.614778-12.043687 12.50711-.628547.32154-12.437647 12.754045-5.997078 6.313662-18.004788 13.530839-30.602436 20.875652-5.970206 3.424204-11.217218 5.604004-18.891181 7.474206-4.592685 1.12-11.355525 2.157801-12.836991-2.716002-1.542777-5.080003 2.138786-12.912211 2.905897-14.610012 5.78898-12.80201 14.433952-26.094021 29.549462-24.120022 14.415415 1.884004 15.095402 24.373896 25.85492 30.283902 5.298343 2.909802 9.250264.510269 19.414555-4.807967z"
       fill="#0cc"
       stroke="none"
       id="path5196" />
    <path
       d="m90.120937 55.223446c-10.76932 13.49115-.33643.589537-10.6294 13.560686-3.58311 2.143898-10.1527 3.763432-13.12282 3.146862-4.16351-.627999-8.72603-5.29165-12.07237-9.909655-4.23337-5.844005-7.33461-14.008012-11.62502-19.024014-3.98099-4.654004-9.64022-7.516009-15.01712-3.738004-2.6578 1.87-5.25286 5.234005-7.26474 8.834006-3.21389 5.746006-1.35537 13.216378 7.06003 14.846379 6.62253.570456 9.97515-.319535 18.76005-4.235284 11.32484-5.30799 19.39403-12.24775 40.95481-28.614778-12.04368 12.50711-.62854.32154-12.43764 12.754045-5.99708 6.313662-18.00479 13.530839-30.60244 20.875652-5.9702 3.424204-11.21722 5.604004-18.89118 7.474206-4.59268 1.12-11.35552 2.157801-12.83699-2.716002-1.54278-5.080003 2.13879-12.912211 2.9059-14.610012 5.78898-12.80201 14.43395-26.094021 29.54946-24.120022 14.41541 1.884004 15.0954 24.373896 25.85492 30.283902 5.29834 2.909802 9.25026.510269 19.41455-4.807967z"
       style="fill:none;stroke:#0cc;stroke-width:2;stroke-linecap:round;stroke-linejoin:round;stroke-opacity:.15686275"
       id="path5198" />
    <path
       d="m90.120937 55.223446c-10.76932 13.49115-.33643.58954-10.6294 13.56069-3.58311 2.1439-10.1527 3.76343-13.12282 3.14686-4.16351-.628-8.72603-5.29165-12.07237-9.90965-4.23337-5.84401-7.33461-14.00801-11.62502-19.02402-3.98099-4.654-9.64022-7.516-15.01712-3.738-2.6578 1.87-5.25286 5.234-7.26474 8.83401-3.21389 5.746-1.35537 13.21637 7.06003 14.84637 6.62253.57046 9.97515-.31953 18.76005-4.23528 11.32484-5.30799 19.39403-12.24775 40.95481-28.61478-12.04368 12.50711-.62854.32154-12.43764 12.75405-5.99708 6.31366-18.00479 13.53084-30.60244 20.87565-5.9702 3.4242-11.21722 5.604-18.89118 7.47421-4.59268 1.12-11.35552 2.1578-12.83699-2.71601-1.54278-5.08 2.13879-12.91221 2.9059-14.61001 5.78898-12.80201 14.43395-26.09402 29.54946-24.12002 14.41541 1.884 15.0954 24.3739 25.85492 30.2839 5.29834 2.9098 9.25026.51027 19.41455-4.80797z"
       style="fill:none;stroke:#0cc;stroke-width:6;stroke-linecap:round;stroke-linejoin:round;stroke-opacity:.15686275"
       id="path5200" />
    <path
       d="m90.120937 55.223446c-10.76932 13.49115-.33643.58954-10.6294 13.56069-3.58311 2.14389-10.1527 3.76343-13.12282 3.14686-4.16351-.628-8.72603-5.29165-12.07237-9.90966-4.23337-5.844-7.33461-14.008009-11.62502-19.024011-3.98099-4.654003-9.64022-7.516008-15.01712-3.738003-2.6578 1.869999-5.25286 5.234004-7.26474 8.834005-3.21389 5.746006-1.35537 13.216379 7.06003 14.846379 6.62253.57046 9.97515-.31953 18.76005-4.23528 11.32484-5.307994 19.39403-12.247754 40.95481-28.614781-12.04368 12.507109-.62854.32154-12.43764 12.754044-5.99708 6.313662-18.00479 13.530837-30.60244 20.875657-5.9702 3.4242-11.21722 5.604-18.89118 7.4742-4.59268 1.12-11.35552 2.1578-12.83699-2.716-1.54278-5.08 2.13879-12.91221 2.9059-14.610013 5.78898-12.80201 14.43395-26.09402 29.54946-24.120021 14.41541 1.884004 15.0954 24.373895 25.85492 30.283904 5.29834 2.9098 9.25026.51027 19.41455-4.80797z"
       style="fill:none;stroke:#0cc;stroke-width:4;stroke-linecap:round;stroke-linejoin:round;stroke-opacity:.15686275"
       id="path5202" />
    <path
       d="m90.120937 55.223444c-10.76932 13.49115-.33643.58954-10.6294 13.56069-3.58311 2.14389-10.152699 3.76343-13.12282 3.14686-4.163506-.628-8.726025-5.29165-12.072366-9.90966-4.23337-5.844-7.33461-14.00801-11.62502-19.02401-3.98099-4.65401-9.64022-7.51601-15.01712-3.73801-2.6578 1.87-5.25286 5.23401-7.26474 8.83401-3.21389 5.746-1.35537 13.21638 7.06003 14.84638 6.62253.57046 9.97515-.31953 18.76005-4.23528 11.324841-5.308 19.394027-12.24776 40.954806-28.61478-12.04368 12.50711-.62854.32154-12.43764 12.75404-5.99708 6.31366-18.004785 13.53084-30.602436 20.87566-5.9702 3.4242-11.21722 5.604-18.89118 7.4742-4.59268 1.12-11.35552 2.1578-12.83699-2.716-1.54278-5.08 2.13879-12.91221 2.9059-14.61002 5.78898-12.80201 14.43395-26.09402 29.54946-24.12002 14.41541 1.88401 15.0954 24.3739 25.854916 30.28391 5.29834 2.9098 9.25026.51027 19.41455-4.80797z"
       style="fill:none;stroke:#0cc;stroke-width:8;stroke-linecap:round;stroke-linejoin:round;stroke-opacity:.15686275"
       id="path5204" />
  </g>
</svg>
